<svg width="100" height="100" viewBox="0 0 100 100" fill="none" xmlns="http://www.w3.org/2000/svg">
  <defs>
    <linearGradient id="logo-gradient" x1="0%" y1="0%" x2="100%" y2="100%">
      <stop offset="0%" stop-color="#818cf8" />
      <stop offset="50%" stop-color="#c084fc" />
      <stop offset="100%" stop-color="#fb7185" />
    </linearGradient>
    <filter id="glass-blur" x="-20%" y="-20%" width="140%" height="140%">
      <feGaussianBlur in="SourceGraphic" stdDeviation="2" />
    </filter>
  </defs>
  <path d="M50 20C50 20 30 35 30 55C30 66.0457 38.9543 75 50 75C61.0457 75 70 66.0457 70 55C70 35 50 20 50 20ZM50 65C44.4772 65 40 60.5228 40 55C40 50 50 40 50 40C50 40 60 50 60 55C60 60.5228 55.5228 65 50 65Z" fill="url(#logo-gradient)" />
</svg>
